# This file uses centimeters as units for non-parametric coordinates.

mtllib Schedule Export.mtl
g default
v -1.505906 -0.683701 0.069610
v 1.505906 -0.683701 0.069610
v -1.505906 0.683701 0.069610
v 1.505906 0.683701 0.069610
v -1.505906 0.683701 -0.069610
v 1.505906 0.683701 -0.069610
v -1.505906 -0.683701 -0.069610
v 1.505906 -0.683701 -0.069610
v -1.451239 -0.637513 0.057924
v 1.451239 -0.637513 0.057924
v 1.451239 0.637512 0.057924
v -1.451239 0.637512 0.057924
vt 0.710961 0.045637
vt 0.752966 0.045637
vt 0.752966 0.458210
vt 0.710961 0.458210
vt 0.729279 0.462202
vt 0.771284 0.462202
vt 0.771284 0.874775
vt 0.729279 0.874775
vt 0.895758 0.954363
vt 0.895758 0.045637
vt 0.937763 0.045637
vt 0.937763 0.954363
vt 0.662237 0.954363
vt 0.662237 0.045637
vt 0.704242 0.045637
vt 0.704242 0.954363
vt 0.041587 0.974434
vt 0.041587 0.025566
vt 0.458413 0.025566
vt 0.458413 0.974434
vt 0.026487 0.992306
vt 0.026487 0.007695
vt 0.473513 0.007695
vt 0.473513 0.992306
vn 0.000000 0.000000 1.000000
vn 0.000000 0.000000 1.000000
vn 0.000000 0.000000 1.000000
vn 0.000000 0.000000 1.000000
vn 0.000000 1.000000 0.000000
vn 0.000000 1.000000 0.000000
vn 0.000000 1.000000 0.000000
vn 0.000000 1.000000 0.000000
vn 0.000000 -1.000000 0.000000
vn 0.000000 -1.000000 0.000000
vn 0.000000 -1.000000 0.000000
vn 0.000000 -1.000000 0.000000
vn 1.000000 0.000000 0.000000
vn 1.000000 0.000000 0.000000
vn 1.000000 0.000000 0.000000
vn 1.000000 0.000000 0.000000
vn -1.000000 0.000000 0.000000
vn -1.000000 0.000000 0.000000
vn -1.000000 0.000000 0.000000
vn -1.000000 0.000000 0.000000
vn 0.000000 0.245283 0.969452
vn 0.000000 0.245283 0.969452
vn 0.000000 0.245283 0.969452
vn 0.000000 0.245283 0.969452
vn -0.209048 0.000000 0.977905
vn -0.209048 0.000000 0.977905
vn -0.209048 0.000000 0.977905
vn -0.209048 0.000000 0.977905
vn 0.000000 -0.245283 0.969451
vn 0.000000 -0.245283 0.969451
vn 0.000000 -0.245283 0.969451
vn 0.000000 -0.245283 0.969451
vn 0.209048 0.000000 0.977905
vn 0.209048 0.000000 0.977905
vn 0.209048 0.000000 0.977905
vn 0.209048 0.000000 0.977905
s off
g Schedule_Export:Color
usemtl initialShadingGroup
f 9/17/1 10/18/2 11/19/3 12/20/4
f 3/9/5 4/10/6 6/11/7 5/12/8
f 7/13/9 8/14/10 2/15/11 1/16/12
f 2/1/13 8/2/14 6/3/15 4/4/16
f 7/5/17 1/6/18 3/7/19 5/8/20
f 1/21/21 2/22/22 10/18/23 9/17/24
f 2/22/25 4/23/26 11/19/27 10/18/28
f 4/23/29 3/24/30 12/20/31 11/19/32
f 3/24/33 1/21/34 9/17/35 12/20/36
