# This file uses centimeters as units for non-parametric coordinates.

mtllib Bookshelf.mtl
g default
v -2.250000 0.000000 0.500000
v 2.250000 0.000000 0.500000
v -2.250000 6.000000 0.500000
v 2.250000 6.000000 0.500000
v -2.250000 6.000000 -0.500000
v 2.250000 6.000000 -0.500000
v -2.250000 0.000000 -0.500000
v 2.250000 0.000000 -0.500000
v -2.130045 5.840060 -0.500000
v 2.130045 5.840060 -0.500000
v 2.130045 0.159940 -0.500000
v -2.130045 0.159940 -0.500000
v -2.130045 5.840060 -0.412909
v 2.130045 5.840060 -0.412908
v 2.130045 0.159940 -0.412908
v -2.130045 0.159940 -0.412909
vt 0.753777 0.493401
vt 0.934846 0.493401
vt 0.934846 0.726845
vt 0.753777 0.726845
vt 0.753276 0.728921
vt 0.934344 0.728921
vt 0.934344 0.962365
vt 0.753276 0.962365
vt 0.763407 0.478079
vt 0.763407 0.257081
vt 0.779176 0.257081
vt 0.779176 0.478079
vt 0.807568 0.262133
vt 0.807568 0.483131
vt 0.791799 0.483131
vt 0.791799 0.262133
vt 0.566711 0.964383
vt 0.566711 0.149575
vt 0.747780 0.149575
vt 0.747780 0.964383
vt 0.939273 0.959346
vt 0.939273 0.187979
vt 0.955042 0.187979
vt 0.955042 0.959346
vt 0.978009 0.186404
vt 0.978009 0.957772
vt 0.962239 0.957772
vt 0.962239 0.186404
vt 0.539275 0.985847
vt 0.014063 0.976097
vt 0.013611 0.014843
vt 0.538824 0.024592
vt 0.552227 0.991781
vt 0.552227 0.003864
vt 0.564010 0.030199
vt 0.564010 0.965446
vt 0.994259 0.003864
vt 0.982476 0.030199
vt 0.994259 0.991781
vt 0.982476 0.965446
vn 0.000000 1.000000 0.000000
vn 0.000000 1.000000 0.000000
vn 0.000000 1.000000 0.000000
vn 0.000000 1.000000 0.000000
vn 0.000000 0.000000 -1.000000
vn 0.000000 0.000000 -1.000000
vn 0.000000 0.000000 -1.000000
vn 0.000000 0.000000 -1.000000
vn 1.000000 0.000000 0.000000
vn 1.000000 0.000000 0.000000
vn 1.000000 0.000000 0.000000
vn 1.000000 0.000000 0.000000
vn -1.000000 0.000000 0.000000
vn -1.000000 0.000000 0.000000
vn -1.000000 0.000000 0.000000
vn -1.000000 0.000000 0.000000
vn 0.000000 0.000000 -1.000000
vn 0.000000 0.000000 -1.000000
vn 0.000000 0.000000 -1.000000
vn 0.000000 0.000000 -1.000000
vn 0.000000 0.000000 -1.000000
vn 0.000000 0.000000 -1.000000
vn 0.000000 0.000000 -1.000000
vn 0.000000 0.000000 -1.000000
vn 0.000000 0.000000 -1.000000
vn 0.000000 0.000000 -1.000000
vn 0.000000 0.000000 -1.000000
vn 0.000000 0.000000 -1.000000
vn -0.000000 0.000000 -1.000000
vn -0.000000 0.000000 -1.000000
vn -0.000000 0.000000 -1.000000
vn -0.000000 0.000000 -1.000000
vn 0.000000 -1.000000 0.000000
vn 0.000000 -1.000000 0.000000
vn 0.000000 -1.000000 0.000000
vn 0.000000 -1.000000 0.000000
vn -1.000000 0.000000 0.000000
vn -1.000000 0.000000 0.000000
vn -1.000000 0.000000 0.000000
vn -1.000000 0.000000 0.000000
vn 0.000000 1.000000 0.000000
vn 0.000000 1.000000 0.000000
vn 0.000000 1.000000 0.000000
vn 0.000000 1.000000 0.000000
vn 1.000000 0.000000 0.000000
vn 1.000000 0.000000 0.000000
vn 1.000000 0.000000 0.000000
vn 1.000000 0.000000 0.000000
s off
g pCube2
usemtl pCube2SG
f 3/17/1 4/18/2 6/19/3 5/20/4
f 13/29/5 14/30/6 15/31/7 16/32/8
f 2/1/9 8/2/10 6/3/11 4/4/12
f 7/5/13 1/6/14 3/7/15 5/8/16
f 5/33/17 6/34/18 10/35/19 9/36/20
f 6/34/21 8/37/22 11/38/23 10/35/24
f 8/37/25 7/39/26 12/40/27 11/38/28
f 7/39/29 5/33/30 9/36/31 12/40/32
f 9/21/33 10/22/34 14/23/35 13/24/36
f 10/9/37 11/10/38 15/11/39 14/12/40
f 11/25/41 12/26/42 16/27/43 15/28/44
f 12/13/45 9/14/46 13/15/47 16/16/48
