# This file uses centimeters as units for non-parametric coordinates.

mtllib Keyboard Export.mtl
g default
v -1.287582 0.000000 0.500000
v 1.287582 0.000000 0.500000
v -1.287582 0.000000 -0.500000
v 1.287582 0.000000 -0.500000
v -1.287582 0.114822 0.500000
v -1.238380 0.164024 0.450798
v 1.238380 0.164024 0.450798
v 1.287582 0.114822 0.500000
v -1.238380 0.203410 -0.450798
v -1.287582 0.154207 -0.500000
v 1.238380 0.203410 -0.450798
v 1.287582 0.154207 -0.500000
vt 0.157179 0.990092
vt 0.083413 0.977221
vt 0.025964 0.750959
vt 0.099912 0.739182
vt 0.331393 0.740896
vt 0.329538 0.991368
vt 0.082076 0.474774
vt 0.158386 0.463858
vt 0.091541 0.720232
vt 0.015821 0.705781
vt 0.335780 0.467984
vt 0.329784 0.725774
vt 0.012371 0.017408
vt 0.983302 0.018464
vt 0.981054 0.447003
vt 0.010124 0.445947
vt 0.693599 0.972465
vt 0.591375 0.979089
vt 0.591375 0.632419
vt 0.693599 0.639042
vt 0.352820 0.979089
vt 0.352820 0.632419
vt 0.703203 0.660316
vt 0.708721 0.575159
vt 0.986477 0.575159
vt 0.991995 0.660316
vt 0.991995 0.927210
vt 0.703203 0.927210
vn -0.706802 0.706805 0.029279
vn -0.706802 0.706805 0.029279
vn -0.706802 0.706805 0.029279
vn -0.706802 0.706805 0.029279
vn 0.000000 0.707107 0.707107
vn 0.000000 0.707107 0.707107
vn 0.000000 0.707107 0.707107
vn 0.000000 0.707107 0.707107
vn 0.706802 0.706805 0.029279
vn 0.706802 0.706805 0.029279
vn 0.706802 0.706805 0.029279
vn 0.706802 0.706805 0.029279
vn 0.000000 0.707107 -0.707107
vn 0.000000 0.707107 -0.707107
vn 0.000000 0.707107 -0.707107
vn 0.000000 0.707107 -0.707107
vn 0.000000 0.000000 1.000000
vn 0.000000 0.000000 1.000000
vn 0.000000 0.000000 1.000000
vn 0.000000 0.000000 1.000000
vn 0.000000 0.999047 0.043643
vn 0.000000 0.999047 0.043643
vn 0.000000 0.999047 0.043643
vn 0.000000 0.999047 0.043643
vn 0.000000 0.000000 -1.000000
vn 0.000000 0.000000 -1.000000
vn 0.000000 0.000000 -1.000000
vn 0.000000 0.000000 -1.000000
vn 1.000000 0.000000 0.000000
vn 1.000000 0.000000 0.000000
vn 1.000000 0.000000 0.000000
vn 1.000000 0.000000 0.000000
vn -1.000000 0.000000 0.000000
vn -1.000000 0.000000 0.000000
vn -1.000000 0.000000 0.000000
vn -1.000000 0.000000 0.000000
s off
g pCube3
usemtl initialShadingGroup
f 5/1/1 6/2/2 9/3/3 10/4/4
f 6/17/5 5/18/6 8/19/7 7/20/8
f 7/7/9 8/8/10 12/9/11 11/10/12
f 10/23/13 9/24/14 11/25/15 12/26/16
f 1/21/17 2/22/18 8/19/19 5/18/20
f 6/13/21 7/14/22 11/15/23 9/16/24
f 10/23/25 12/26/26 4/27/27 3/28/28
f 2/11/29 4/12/30 12/9/31 8/8/32
f 3/5/33 1/6/34 5/1/35 10/4/36
