# This file uses centimeters as units for non-parametric coordinates.

mtllib Desk Export.mtl
g default
v 3.708230 0.790943 1.214377
v 3.708230 4.825542 1.214377
v 3.291770 0.790943 1.214377
v 3.291770 4.825542 1.214377
v 3.291770 0.790943 -1.565150
v 3.291770 4.825542 -1.565150
v 3.708230 0.790943 -1.565150
v 3.708230 4.825542 -1.565150
v -3.291770 0.790943 1.214377
v -3.291770 4.825542 1.214377
v -3.708230 0.790943 1.214377
v -3.708230 4.825542 1.214377
v -3.708230 0.790943 -1.565150
v -3.708230 4.825542 -1.565150
v -3.291770 0.790943 -1.565150
v -3.291770 4.825542 -1.565150
v -4.108009 4.690722 1.603123
v 4.108009 4.690722 1.603123
v -4.108009 5.107182 1.603123
v 4.108009 5.107182 1.603123
v -4.108009 5.107182 -1.603123
v 4.108009 5.107182 -1.603123
v -4.108009 4.690722 -1.603123
v 4.108009 4.690722 -1.603123
vt 0.623125 0.001911
vt 0.623125 0.315361
vt 0.590771 0.315361
vt 0.590771 0.001911
vt 0.845692 0.001911
vt 0.845692 0.315361
vt 0.629750 0.315361
vt 0.629750 0.001911
vt 0.851930 0.315361
vt 0.851930 0.001911
vt 0.884285 0.001911
vt 0.884285 0.315361
vt 0.998008 0.319352
vt 0.998008 0.632801
vt 0.782066 0.632801
vt 0.782066 0.319352
vt 0.177815 0.644208
vt 0.177815 0.860150
vt 0.145460 0.860150
vt 0.145460 0.644208
vt 0.139325 0.644208
vt 0.139325 0.860150
vt 0.106970 0.860150
vt 0.106970 0.644208
vt 0.775930 0.319352
vt 0.775930 0.632801
vt 0.743576 0.632801
vt 0.743576 0.319352
vt 0.737440 0.644208
vt 0.737440 0.957657
vt 0.521498 0.957657
vt 0.521498 0.644208
vt 0.483008 0.957657
vt 0.483008 0.644208
vt 0.515363 0.644208
vt 0.515363 0.957657
vt 0.476873 0.644208
vt 0.476873 0.957657
vt 0.260930 0.957657
vt 0.260930 0.644208
vt 0.100834 0.644208
vt 0.100834 0.860150
vt 0.068479 0.860150
vt 0.068479 0.644208
vt 0.062344 0.644208
vt 0.062344 0.860150
vt 0.029989 0.860150
vt 0.029989 0.644208
vt 0.001992 0.640216
vt 0.001992 0.001911
vt 0.034347 0.001911
vt 0.034347 0.640216
vt 0.041166 0.640216
vt 0.041166 0.001911
vt 0.290260 0.001911
vt 0.290260 0.640216
vt 0.296479 0.640216
vt 0.296479 0.001911
vt 0.328834 0.001911
vt 0.328834 0.640216
vt 0.335458 0.640216
vt 0.335458 0.001911
vt 0.584552 0.001911
vt 0.584552 0.640216
vt 0.222440 0.893302
vt 0.222440 0.644208
vt 0.254795 0.644208
vt 0.254795 0.893302
vt 0.183950 0.893302
vt 0.183950 0.644208
vt 0.216305 0.644208
vt 0.216305 0.893302
vn 0.000000 0.000000 1.000000
vn 0.000000 0.000000 1.000000
vn 0.000000 0.000000 1.000000
vn 0.000000 0.000000 1.000000
vn -1.000000 0.000000 0.000000
vn -1.000000 0.000000 0.000000
vn -1.000000 0.000000 0.000000
vn -1.000000 0.000000 0.000000
vn 0.000000 0.000000 -1.000000
vn 0.000000 0.000000 -1.000000
vn 0.000000 0.000000 -1.000000
vn 0.000000 0.000000 -1.000000
vn 1.000000 0.000000 0.000000
vn 1.000000 0.000000 0.000000
vn 1.000000 0.000000 0.000000
vn 1.000000 0.000000 0.000000
vn 0.000000 1.000000 0.000000
vn 0.000000 1.000000 0.000000
vn 0.000000 1.000000 0.000000
vn 0.000000 1.000000 0.000000
vn 0.000000 -1.000000 0.000000
vn 0.000000 -1.000000 0.000000
vn 0.000000 -1.000000 0.000000
vn 0.000000 -1.000000 0.000000
vn 0.000000 0.000000 1.000000
vn 0.000000 0.000000 1.000000
vn 0.000000 0.000000 1.000000
vn 0.000000 0.000000 1.000000
vn -1.000000 0.000000 0.000000
vn -1.000000 0.000000 0.000000
vn -1.000000 0.000000 0.000000
vn -1.000000 0.000000 0.000000
vn 0.000000 0.000000 -1.000000
vn 0.000000 0.000000 -1.000000
vn 0.000000 0.000000 -1.000000
vn 0.000000 0.000000 -1.000000
vn 1.000000 0.000000 0.000000
vn 1.000000 0.000000 0.000000
vn 1.000000 0.000000 0.000000
vn 1.000000 0.000000 0.000000
vn 0.000000 1.000000 0.000000
vn 0.000000 1.000000 0.000000
vn 0.000000 1.000000 0.000000
vn 0.000000 1.000000 0.000000
vn 0.000000 -1.000000 0.000000
vn 0.000000 -1.000000 0.000000
vn 0.000000 -1.000000 0.000000
vn 0.000000 -1.000000 0.000000
vn 0.000000 0.000000 1.000000
vn 0.000000 0.000000 1.000000
vn 0.000000 0.000000 1.000000
vn 0.000000 0.000000 1.000000
vn 0.000000 1.000000 0.000000
vn 0.000000 1.000000 0.000000
vn 0.000000 1.000000 0.000000
vn 0.000000 1.000000 0.000000
vn 0.000000 0.000000 -1.000000
vn 0.000000 0.000000 -1.000000
vn 0.000000 0.000000 -1.000000
vn 0.000000 0.000000 -1.000000
vn 0.000000 -1.000000 0.000000
vn 0.000000 -1.000000 0.000000
vn 0.000000 -1.000000 0.000000
vn 0.000000 -1.000000 0.000000
vn 1.000000 0.000000 0.000000
vn 1.000000 0.000000 0.000000
vn 1.000000 0.000000 0.000000
vn 1.000000 0.000000 0.000000
vn -1.000000 0.000000 0.000000
vn -1.000000 0.000000 0.000000
vn -1.000000 0.000000 0.000000
vn -1.000000 0.000000 0.000000
s off
g Desk_Export:Base
usemtl initialShadingGroup
f 1/1/1 2/2/2 4/3/3 3/4/4
f 3/5/5 4/6/6 6/7/7 5/8/8
f 5/9/9 6/10/10 8/11/11 7/12/12
f 7/13/13 8/14/14 2/15/15 1/16/16
f 2/17/17 8/18/18 6/19/19 4/20/20
f 7/21/21 1/22/22 3/23/23 5/24/24
f 9/25/25 10/26/26 12/27/27 11/28/28
f 11/29/29 12/30/30 14/31/31 13/32/32
f 13/33/33 14/34/34 16/35/35 15/36/36
f 15/37/37 16/38/38 10/39/39 9/40/40
f 10/41/41 16/42/42 14/43/43 12/44/44
f 15/45/45 9/46/46 11/47/47 13/48/48
f 17/49/49 18/50/50 20/51/51 19/52/52
f 19/53/53 20/54/54 22/55/55 21/56/56
f 21/57/57 22/58/58 24/59/59 23/60/60
f 23/61/61 24/62/62 18/63/63 17/64/64
f 18/65/65 24/66/66 22/67/67 20/68/68
f 23/69/69 17/70/70 19/71/71 21/72/72
