# This file uses centimeters as units for non-parametric coordinates.

mtllib Computer Screen ExportFinal.mtl
g default
v -1.407884 0.515050 0.116884
v 1.407884 0.515050 0.116884
v -1.407884 2.257707 0.116884
v 1.407884 2.257707 0.116884
v -1.407884 2.257707 -0.164280
v 1.407884 2.257707 -0.164280
v -1.407884 0.515050 -0.164280
v 1.407884 0.515050 -0.164280
v -1.268571 0.654363 0.088934
v 1.268571 0.654363 0.088934
v 1.268571 2.118394 0.088934
v -1.268571 2.118394 0.088934
v -0.428712 0.423068 -0.164280
v 0.428712 0.423068 -0.164280
v 0.428712 0.423068 0.116884
v -0.428712 0.423068 0.116884
v -0.301616 0.271484 -0.164280
v 0.301616 0.271484 -0.164280
v 0.301616 0.271484 0.116884
v -0.301616 0.271484 0.116884
v -0.301616 0.173120 -0.164280
v 0.301616 0.173120 -0.164280
v 0.301616 0.173120 0.116884
v -0.301616 0.173120 0.116884
v -1.016310 0.004986 -0.164280
v 1.016310 0.004986 -0.164280
v 1.016310 0.004986 0.116884
v -1.016310 0.004986 0.116884
vt 0.134486 0.548071
vt 0.134486 0.030411
vt 0.433196 0.030411
vt 0.433196 0.548071
vt 0.467987 0.576496
vt 0.467987 0.001987
vt 0.525353 0.001987
vt 0.525353 0.576496
vt 0.940641 0.995208
vt 0.940641 0.580487
vt 0.998008 0.580487
vt 0.998008 0.995208
vt 0.877140 0.580487
vt 0.934506 0.580487
vt 0.934506 0.936046
vt 0.877140 0.936046
vt 0.813638 0.580487
vt 0.871004 0.580487
vt 0.871004 0.936046
vt 0.813638 0.936046
vt 0.106062 0.576496
vt 0.106062 0.001987
vt 0.461621 0.001987
vt 0.461621 0.576496
vt 0.887861 0.576496
vt 0.887861 0.001986
vt 0.906628 0.201770
vt 0.906628 0.376712
vt 0.750136 0.580487
vt 0.807502 0.580487
vt 0.807502 0.780270
vt 0.750136 0.780270
vt 0.087294 0.376712
vt 0.087294 0.201770
vt 0.744000 0.780270
vt 0.686634 0.780270
vt 0.686634 0.580487
vt 0.744000 0.580487
vt 0.937556 0.227701
vt 0.937556 0.350781
vt 0.553495 0.580487
vt 0.553495 0.637854
vt 0.522567 0.637854
vt 0.522567 0.580487
vt 0.056366 0.350781
vt 0.056366 0.227702
vt 0.496362 0.580487
vt 0.496362 0.637854
vt 0.465434 0.637854
vt 0.465434 0.580487
vt 0.957626 0.227701
vt 0.957626 0.350781
vt 0.502497 0.637854
vt 0.502497 0.580487
vt 0.036297 0.350781
vt 0.036297 0.227702
vt 0.445364 0.637854
vt 0.445364 0.580487
vt 0.991931 0.081880
vt 0.991931 0.496601
vt 0.680498 0.726308
vt 0.623132 0.726308
vt 0.623132 0.580487
vt 0.680498 0.580487
vt 0.001992 0.496602
vt 0.001992 0.081881
vt 0.559630 0.580487
vt 0.616997 0.580487
vt 0.616997 0.726308
vt 0.559630 0.726308
vt 0.532302 0.576496
vt 0.532302 0.001986
vn 0.000000 0.000000 1.000000
vn 0.000000 0.000000 1.000000
vn 0.000000 0.000000 1.000000
vn 0.000000 0.000000 1.000000
vn 0.000000 0.970046 0.242923
vn 0.000000 0.970046 0.242923
vn 0.000000 1.000000 0.000000
vn 0.000000 1.000000 0.000000
vn 0.000000 -1.000000 0.000000
vn 0.000000 -1.000000 0.000000
vn 0.000000 -1.000000 0.000000
vn 0.000000 -1.000000 0.000000
vn 0.856156 -0.477965 0.196330
vn 0.882214 -0.470849 0.000000
vn 1.000000 0.000000 0.000000
vn 0.971943 0.000000 0.235217
vn -0.882214 -0.470849 0.000000
vn -0.856156 -0.477965 0.196330
vn -0.971943 0.000000 0.235217
vn -1.000000 0.000000 0.000000
vn 0.000000 0.187101 0.982341
vn 0.000000 0.187101 0.982341
vn 0.000000 0.196708 0.980462
vn 0.000000 0.196708 0.980462
vn 0.856156 -0.477965 0.196330
vn 0.971943 0.000000 0.235217
vn -0.196708 0.000000 0.980462
vn -0.196708 0.000000 0.980462
vn 0.000000 0.970046 0.242923
vn 0.000000 0.970046 0.242923
vn 0.000000 -0.196708 0.980462
vn 0.000000 -0.196708 0.980462
vn -0.971943 0.000000 0.235217
vn -0.856156 -0.477965 0.196330
vn 0.196708 0.000000 0.980462
vn 0.196708 0.000000 0.980462
vn 0.000000 0.000000 -1.000000
vn 0.000000 0.000000 -1.000000
vn 0.000000 0.000000 -1.000000
vn 0.000000 0.000000 -1.000000
vn 0.882214 -0.470849 0.000000
vn 0.856156 -0.477965 0.196330
vn 0.093527 -0.995617 0.000000
vn 0.093527 -0.995617 0.000000
vn 0.000000 0.187101 0.982341
vn 0.000000 0.187101 0.982341
vn 0.000000 0.000000 1.000000
vn 0.000000 0.000000 1.000000
vn -0.856156 -0.477965 0.196330
vn -0.882214 -0.470849 0.000000
vn -0.093527 -0.995617 0.000000
vn -0.093527 -0.995617 0.000000
vn 0.000000 0.000000 -1.000000
vn 0.000000 0.000000 -1.000000
vn 0.000000 0.000000 -1.000000
vn 0.000000 0.000000 -1.000000
vn 0.766288 -0.642497 0.000000
vn 0.766288 -0.642497 0.000000
vn 0.766288 -0.642497 0.000000
vn 0.766288 -0.642497 0.000000
vn 0.000000 0.000000 1.000000
vn 0.000000 0.000000 1.000000
vn 0.000000 0.000000 1.000000
vn 0.000000 0.000000 1.000000
vn -0.766288 -0.642497 0.000000
vn -0.766288 -0.642497 0.000000
vn -0.766288 -0.642497 0.000000
vn -0.766288 -0.642497 0.000000
vn 0.000000 0.000000 -1.000000
vn 0.000000 0.000000 -1.000000
vn 0.000000 0.000000 -1.000000
vn 0.000000 0.000000 -1.000000
vn 1.000000 0.000000 0.000000
vn 1.000000 0.000000 0.000000
vn 0.349384 0.936980 0.000000
vn 0.349384 0.936980 0.000000
vn 0.000000 0.000000 1.000000
vn 0.000000 0.000000 1.000000
vn 0.000000 0.000000 1.000000
vn 0.000000 0.000000 1.000000
vn -1.000000 0.000000 0.000000
vn -1.000000 0.000000 0.000000
vn -0.349384 0.936980 0.000000
vn -0.349384 0.936980 0.000000
vn 0.000000 0.000000 -1.000000
vn 0.000000 0.000000 -1.000000
vn 0.000000 0.000000 -1.000000
vn 0.000000 0.000000 -1.000000
vn 0.349384 0.936980 0.000000
vn 0.349384 0.936980 0.000000
vn 0.229000 0.973426 0.000000
vn 0.229000 0.973426 0.000000
vn 0.000000 0.000000 1.000000
vn 0.000000 0.000000 1.000000
vn 0.000000 0.000000 1.000000
vn 0.000000 0.000000 1.000000
vn -0.349384 0.936980 0.000000
vn -0.349384 0.936980 0.000000
vn -0.229000 0.973426 0.000000
vn -0.229000 0.973426 0.000000
vn 0.000000 0.000000 -1.000000
vn 0.000000 0.000000 -1.000000
vn 0.000000 0.000000 -1.000000
vn 0.000000 0.000000 -1.000000
s off
g Computer_Screen_ExportFinal:Base
usemtl initialShadingGroup
f 9/1/1 10/2/2 11/3/3 12/4/4
f 3/5/5 4/6/6 6/7/7 5/8/8
f 25/9/9 26/10/10 27/11/11 28/12/12
f 2/13/13 8/14/14 6/15/15 4/16/16
f 7/17/17 1/18/18 3/19/19 5/20/20
f 1/21/21 2/22/22 10/2/23 9/1/24
f 2/22/25 4/23/26 11/3/27 10/2/28
f 4/23/29 3/24/30 12/4/31 11/3/32
f 3/24/33 1/21/34 9/1/35 12/4/36
f 7/25/37 8/26/38 14/27/39 13/28/40
f 8/29/41 2/30/42 15/31/43 14/32/44
f 2/22/45 1/21/46 16/33/47 15/34/48
f 1/35/49 7/36/50 13/37/51 16/38/52
f 13/28/53 14/27/54 18/39/55 17/40/56
f 14/41/57 15/42/58 19/43/59 18/44/60
f 15/34/61 16/33/62 20/45/63 19/46/64
f 16/47/65 13/48/66 17/49/67 20/50/68
f 17/40/69 18/39/70 22/51/71 21/52/72
f 18/44/73 19/43/74 23/53/75 22/54/76
f 19/46/77 20/45/78 24/55/79 23/56/80
f 20/50/81 17/49/82 21/57/83 24/58/84
f 21/52/85 22/51/86 26/59/87 25/60/88
f 22/61/89 23/62/90 27/63/91 26/64/92
f 23/56/93 24/55/94 28/65/95 27/66/96
f 24/67/97 21/68/98 25/69/99 28/70/100
f 5/71/101 6/72/102 8/26/103 7/25/104
